<svg id="Слой_1" data-name="Слой 1" xmlns="http://www.w3.org/2000/svg" viewBox="0 0 249.68 237.29"><defs><style>.cls-1{fill:none;}.cls-2{fill:#009fe3;}.cls-3{fill:#79cdf4;}.cls-4{fill:#2274ba;}</style></defs><polygon class="cls-1" points="124.8 120.37 124.82 120.41 124.82 120.41 124.79 120.35 124.8 120.37"/><path class="cls-2" d="M138.5,112.12h0a15.91,15.91,0,0,1,.31,15.7h0a15.81,15.81,0,0,1-3.17,4.09l2.68,4.6a21.36,21.36,0,0,0,5.09-6.21,21.1,21.1,0,0,0-.4-20.85,21.67,21.67,0,0,0-4.79-5.57l-2.75,4.55A16.08,16.08,0,0,1,138.5,112.12Z"/><path class="cls-3" d="M113.86,138.47a21.11,21.11,0,0,0,10.86,3l.79,0a21.19,21.19,0,0,0,6.69-1.36l-2.68-4.6a16,16,0,0,1-4.17.73h0l-.6,0a15.9,15.9,0,0,1-8.18-2.27h0a16.11,16.11,0,0,1-5.52-5.49v0a16.14,16.14,0,0,1-1.89-4.68H103.8a21,21,0,0,0,2.73,7.37A21.45,21.45,0,0,0,113.86,138.47Z"/><path class="cls-4" d="M110.68,112.6a16,16,0,0,1,6-6.16,15.83,15.83,0,0,1,7.64-2.18h.41a15.71,15.71,0,0,1,4.58.68l2.77-4.58A20.84,20.84,0,0,0,124.72,99h-.55A21.12,21.12,0,0,0,114,101.92a21.35,21.35,0,0,0-8,8.19,20.94,20.94,0,0,0-2.29,6.6h5.33a15.57,15.57,0,0,1,1.55-4.1Z"/><path class="cls-4" d="M78.34,191.11l.4-.65c-.61-.49-1.22-1-1.81-1.48l-.66-.57-1.11-1-.7-.64-1-.94c-.25-.23-.48-.47-.72-.7s-.65-.61-1-.93-.48-.49-.72-.73-.62-.62-.92-.94l-.7-.75-.88-1c-.24-.26-.46-.52-.69-.78l-.86-1c-.22-.25-.43-.52-.64-.78l-.85-1-.62-.8-.82-1-.59-.8-.8-1.08c-.2-.27-.39-.55-.58-.83l-.76-1.08-.57-.87c-.24-.36-.48-.71-.71-1.08s-.37-.59-.55-.88-.46-.73-.68-1.1-.36-.6-.53-.91-.44-.73-.65-1.1l-.51-.94-.61-1.11-.5-1c-.17-.33-.34-.66-.5-1l-2.08-3.08.5-.3a.77.77,0,0,1-.07-.16c-.12-.27-.23-.54-.34-.81-.33-.77-.66-1.55-1-2.33-.15-.37-.28-.73-.42-1.1-.26-.69-.51-1.39-.76-2.09-.14-.4-.27-.81-.4-1.22-.22-.66-.44-1.33-.64-2-.13-.42-.25-.85-.38-1.28l-.54-2-.33-1.31c-.16-.68-.31-1.36-.46-2.05l-.27-1.27c-.14-.74-.27-1.49-.4-2.24-.06-.36-.13-.73-.19-1.09-.18-1.12-.33-2.23-.46-3.36-.1-.8-.18-1.61-.25-2.43-.14-1.57-.23-3.19-.28-4.81,0-.86,0-1.72,0-2.59V124c0-1.23,0-2.59.1-4l.17-3.37H93.73a31.18,31.18,0,0,1,30.14-27.64h.23a28,28,0,0,1,7,.63c.68.15,1.36.31,2,.5a30.84,30.84,0,0,1,3.91,1.39l.25.11,20.54-34a78.32,78.32,0,0,0-12-5.86c-2.25-.87-4.57-1.64-6.9-2.3s-4.77-1.21-7.18-1.65-4.92-.76-7.41-1l-1.75-.11-.42,0c-1.7-.1-3-.14-4.26-.14a76.87,76.87,0,0,0-32.37,7.08L82.85,55l-.32.21-.3.17a78.26,78.26,0,0,0-27,23.29c-.64.89-1.31,1.86-2.11,3.07a77.42,77.42,0,0,0-12.59,38.67c-.06,1.35-.09,2.59-.09,3.79a77.89,77.89,0,0,0,.49,8.72,76.61,76.61,0,0,0,10.48,31A77.49,77.49,0,0,0,73,187.4l.1.08c1.67,1.28,3.41,2.51,5.2,3.68l0,0Z"/><path class="cls-2" d="M120.51,35.65a84.82,84.82,0,0,0-35.38,9.67l.42.71a83.93,83.93,0,0,1,32.38-6.44c1.37,0,2.86,0,4.68.16l.42,0,1.91.13c2.71.23,5.43.58,8.09,1.06s5.26,1.08,7.83,1.8,5.08,1.56,7.54,2.5a85.17,85.17,0,0,1,16.23,8.39l2.81,1.87-1.78,3-22,36.92a31.48,31.48,0,0,1,7.93,8.92,31.23,31.23,0,0,1-8.17,40.88l18.15,31.12,2.17,3.72a78.24,78.24,0,0,0,23.74-21.47c.76-1,1.54-2.18,2.37-3.47a77.45,77.45,0,0,0,12.11-35.2l.24-2.81c0-.1,0-.21,0-.31v-.31c.06-1.38.09-2.44.09-3.43a76.78,76.78,0,0,0-7.93-34.17l-.13-.25a77.61,77.61,0,0,0-66.29-43h-.45c-.87,0-1.73-.05-2.59-.05h-.14c-.86,0-1.72,0-2.56,0Z"/><polygon points="124.75 120.3 124.76 120.31 124.76 120.31 124.79 120.35 124.82 120.41 124.81 120.26 124.83 120.25 124.81 120.25 124.81 120.11 124.75 120.2 124.75 120.21 124.74 120.22 124.69 120.19 124.72 120.25 124.67 120.35 124.75 120.3"/><path class="cls-3" d="M199.72,160.82a76.63,76.63,0,0,0,8.69-27.92l0-.12a84.38,84.38,0,0,0,.85-9h-.63A84.58,84.58,0,0,1,195.78,159c-.9,1.4-1.75,2.64-2.58,3.79A85.35,85.35,0,0,1,164.05,188l-3,1.58-9.45-16.21-14.32-24.56a31.4,31.4,0,0,1-11.44,2.6l-.28,0-.84,0A31.22,31.22,0,0,1,98,136.28c-.11-.2-.22-.39-.32-.59l-.12-.21c-.29-.52-.58-1-.84-1.6a31.26,31.26,0,0,1-1.79-4.54,31.71,31.71,0,0,1-1.07-4.78c0-.25-.07-.51-.1-.77H53.84v.49c0,.72,0,1.52,0,2.3.05,1.49.13,3,.26,4.42.06.74.14,1.49.23,2.22a76.83,76.83,0,0,0,7.32,25l.07.16a78.21,78.21,0,0,0,23.74,28.36l2.44,1.79.38.2.29.18a77.58,77.58,0,0,0,36.34,12.58c.92.07,1.85.13,2.77.18,1.4.07,2.56.1,3.66.1a76.61,76.61,0,0,0,35.92-8.82,78.14,78.14,0,0,0,32.43-32.1Z"/></svg>