<svg id="Слой_1" data-name="Слой 1" xmlns="http://www.w3.org/2000/svg" viewBox="0 0 534.58 222.97"><defs><style>.cls-1{fill:#79cdf4;}.cls-2{fill:#2274ba;}.cls-3{fill:none;}.cls-4{fill:#009fe3;}</style></defs><path class="cls-1" d="M237.27,61.33a81.56,81.56,0,0,1,13.47-.93c6.13,0,10.55,1.19,13.51,3.56a12.79,12.79,0,0,1,4.68,10.21c0,4.32-1.4,8-4,10.45-3.41,3.2-8.49,4.68-14.34,4.68a22.88,22.88,0,0,1-3.4-.23v15.8h-9.89Zm9.89,20a15.1,15.1,0,0,0,3.31.27c5.3,0,8.58-2.69,8.58-7.16,0-4.06-2.78-6.48-7.81-6.48a20.42,20.42,0,0,0-4.08.33Z"/><path class="cls-1" d="M275.31,61.35a84.62,84.62,0,0,1,13.26-1c6.55,0,11.13,1,14.28,3.49,2.64,2.1,4.09,5.2,4.09,9.26A11.71,11.71,0,0,1,299.15,84v.21c3.06,1.24,4.78,4.16,5.89,8.22,1.37,5,2.7,10.74,3.57,12.45H298.39c-.68-1.27-1.78-4.82-3-10.28s-3.09-7-7.19-7h-3v17.33h-9.89Zm9.89,19h3.91c4.95,0,7.91-2.53,7.91-6.36,0-4-2.77-6.11-7.33-6.14a20.37,20.37,0,0,0-4.49.34Z"/><path class="cls-1" d="M354.23,82.37c0,14.47-8.73,23.22-21.64,23.22-13.08,0-20.78-9.9-20.78-22.48,0-13.19,8.48-23.09,21.48-23.09C346.83,60,354.23,70.16,354.23,82.37Zm-31.88.55c0,8.64,4.08,14.74,10.74,14.74s10.6-6.37,10.6-15c0-8-3.76-14.74-10.63-14.74S322.35,74.34,322.35,82.92Z"/><path class="cls-2" d="M275.25,117.43h10V153.2h17.56v8.37H275.25Z"/><path class="cls-2" d="M334.92,142.9H318.68v10.49h18.15v8.18H308.7V117.43h27.19v8.18H318.68v9.19h16.24Z"/><path class="cls-2" d="M380.51,159.53A48.87,48.87,0,0,1,365.78,162c-8.07,0-13.88-2-17.94-5.92s-6.27-9.58-6.25-16.07c.06-14.68,10.75-23,25.2-23,5.7,0,10.09,1.08,12.27,2.12l-2.08,8a24.33,24.33,0,0,0-10.27-1.88c-8.32,0-14.64,4.68-14.64,14.28,0,9.11,5.75,14.45,13.92,14.45a14.38,14.38,0,0,0,4.88-.62v-9.28h-6.82v-7.78h16.46Z"/><path class="cls-2" d="M398.54,150.23l-3.11,11.34H385.11l13.47-44.14h13.06l13.73,44.14H414.62l-3.39-11.34Zm11.21-7.43L407,133.42c-.75-2.61-1.54-5.91-2.21-8.5h-.14c-.65,2.6-1.31,6-2,8.51L400,142.8Z"/><path class="cls-2" d="M462,160.35c-1.79.88-6,1.9-11.28,1.9-15.28,0-23.16-9.55-23.16-22.13,0-15,10.78-23.37,24.1-23.37,5.19,0,9.13,1,10.87,2l-2,7.88a21.07,21.07,0,0,0-8.38-1.65c-7.87,0-14,4.8-14,14.6,0,8.85,5.21,14.41,14.1,14.41a23.88,23.88,0,0,0,8.34-1.43Z"/><path class="cls-2" d="M479.21,161.57v-18.1l-13.94-26H476.7l4.49,10.62c1.35,3.17,2.32,5.53,3.4,8.45h.13c1-2.75,2-5.33,3.33-8.46l4.45-10.61h11.24l-14.56,25.71v18.43Z"/><polygon class="cls-3" points="115.46 113.21 115.48 113.25 115.48 113.25 115.45 113.19 115.46 113.21"/><path class="cls-4" d="M129.16,105v0a15.92,15.92,0,0,1,.3,15.69h0a16,16,0,0,1-3.17,4.09l2.68,4.6a21.52,21.52,0,0,0,5.09-6.21,21.13,21.13,0,0,0-.41-20.85,21.47,21.47,0,0,0-4.78-5.57l-2.76,4.55A16.24,16.24,0,0,1,129.16,105Z"/><path class="cls-1" d="M104.53,131.31a21.08,21.08,0,0,0,10.86,3l.79,0a20.85,20.85,0,0,0,6.68-1.35l-2.68-4.6a15.91,15.91,0,0,1-4.17.73h0l-.59,0a15.94,15.94,0,0,1-8.19-2.27h0a16.2,16.2,0,0,1-5.52-5.49v0a15.84,15.84,0,0,1-1.88-4.68H94.47A21,21,0,0,0,97.19,124,21.48,21.48,0,0,0,104.53,131.31Z"/><path class="cls-2" d="M101.35,105.44A16,16,0,0,1,115,97.1h0l.39,0a15.77,15.77,0,0,1,4.58.69l2.77-4.58a20.84,20.84,0,0,0-7.35-1.34l-.56,0a21.12,21.12,0,0,0-10.13,2.89,21.28,21.28,0,0,0-10.24,14.78h5.33a16.21,16.21,0,0,1,1.55-4.1Z"/><path class="cls-2" d="M69,184l.39-.65c-.61-.49-1.21-1-1.81-1.49l-.66-.57q-.56-.47-1.11-1l-.69-.63-1-1-.72-.69-1-.93-.72-.73c-.3-.32-.61-.62-.91-.94l-.7-.75-.89-1-.69-.78-.85-1-.65-.78c-.28-.34-.57-.67-.84-1l-.63-.79-.82-1c-.2-.27-.39-.54-.59-.8l-.8-1.08-.58-.83c-.25-.36-.51-.72-.75-1.08l-.58-.87c-.24-.36-.48-.72-.71-1.08s-.37-.59-.55-.88-.46-.73-.68-1.1l-.53-.91-.64-1.1c-.18-.31-.35-.63-.52-.94s-.41-.74-.6-1.11l-.5-1-.51-1-2.08-3.08.5-.3a1.11,1.11,0,0,0-.07-.16c-.11-.27-.22-.54-.34-.81q-.49-1.16-1-2.34c-.14-.36-.27-.72-.41-1.09-.26-.69-.52-1.39-.76-2.09-.14-.41-.28-.81-.41-1.22-.22-.67-.43-1.34-.64-2-.13-.43-.25-.85-.37-1.28-.19-.66-.37-1.33-.54-2-.11-.43-.23-.87-.33-1.3-.16-.68-.31-1.36-.46-2-.09-.42-.19-.84-.27-1.27-.15-.74-.28-1.49-.41-2.24-.06-.37-.13-.73-.19-1.09-.17-1.12-.33-2.23-.46-3.36-.09-.8-.18-1.61-.25-2.43-.13-1.57-.23-3.19-.28-4.81,0-.86,0-1.72,0-2.59v-.18c0-1.23,0-2.59.1-4l.16-3.38H84.39a31.18,31.18,0,0,1,30.14-27.63h.23a28.56,28.56,0,0,1,7,.64c.67.14,1.36.31,2,.5a31.82,31.82,0,0,1,3.91,1.38l.25.11,20.54-33.95a77.82,77.82,0,0,0-12-5.87c-2.26-.86-4.58-1.64-6.91-2.29s-4.77-1.22-7.17-1.65-4.93-.76-7.42-1l-1.75-.11-.41,0c-1.7-.1-3-.14-4.26-.14A76.91,76.91,0,0,0,76.22,46.6l-2.7,1.25-.33.21-.29.17a78.08,78.08,0,0,0-27,23.29c-.65.88-1.32,1.86-2.11,3.07a77.22,77.22,0,0,0-12.59,38.67c-.07,1.34-.1,2.59-.1,3.79a80.34,80.34,0,0,0,.49,8.72,77.58,77.58,0,0,0,32.13,54.47l.11.08q2.5,1.92,5.19,3.68l0-.05Z"/><path class="cls-4" d="M111.18,28.49a84.66,84.66,0,0,0-35.39,9.66l.42.72a84,84,0,0,1,32.39-6.44c1.37,0,2.85,0,4.68.16l.41,0,1.92.13c2.71.22,5.43.58,8.08,1.06s5.26,1.07,7.84,1.8,5.08,1.55,7.54,2.5a84.6,84.6,0,0,1,16.23,8.39l2.81,1.86-1.79,3-22,36.92a31.21,31.21,0,0,1-.25,49.8l18.15,31.12,2.17,3.72a78.28,78.28,0,0,0,23.75-21.47c.76-1,1.53-2.18,2.37-3.47a77.43,77.43,0,0,0,12.1-35.2l.25-2.81c0-.1,0-.21,0-.31v-.31c.06-1.38.08-2.44.08-3.43A76.78,76.78,0,0,0,185,71.75l-.12-.25a77.55,77.55,0,0,0-66.29-43h-.46c-.87,0-1.72-.05-2.58-.05h-.14c-.87,0-1.73,0-2.57.05Z"/><polygon points="115.42 113.13 115.42 113.15 115.42 113.15 115.45 113.19 115.48 113.25 115.48 113.1 115.5 113.09 115.48 113.09 115.47 112.95 115.42 113.04 115.41 113.05 115.41 113.06 115.36 113.03 115.39 113.09 115.33 113.19 115.42 113.13"/><path class="cls-1" d="M190.38,153.66a76.7,76.7,0,0,0,8.7-27.92l0-.13a86.62,86.62,0,0,0,.85-9h-.64a84.62,84.62,0,0,1-12.86,35.2c-.91,1.4-1.75,2.64-2.59,3.79a85.41,85.41,0,0,1-29.14,25.22l-3,1.58-9.46-16.21-14.32-24.56a31.34,31.34,0,0,1-11.43,2.6h-.29c-.27,0-.55,0-.83,0a31.06,31.06,0,0,1-16-4.41,31.39,31.39,0,0,1-10.78-10.77c-.12-.19-.22-.38-.33-.58l-.12-.21c-.29-.52-.57-1.06-.84-1.6a32.19,32.19,0,0,1-1.79-4.54,30.48,30.48,0,0,1-1.06-4.78c0-.25-.07-.51-.1-.77H44.5v.49c0,.72,0,1.52,0,2.3,0,1.49.13,3,.25,4.42.07.74.14,1.48.23,2.22a76.83,76.83,0,0,0,7.32,25l.08.16a78.11,78.11,0,0,0,23.74,28.36l2.44,1.79.38.2.29.18A77.5,77.5,0,0,0,115.6,194.3c.92.07,1.85.13,2.78.18,1.39.07,2.55.1,3.65.1A76.7,76.7,0,0,0,158,185.76a78.14,78.14,0,0,0,32.43-32.1Z"/></svg>