<svg xmlns="http://www.w3.org/2000/svg" viewBox="0 0 4375.9 1616.61"><defs><style>.cls-1{fill:#d0ebfc;}.cls-2{fill:#fff;}.cls-3{fill:#64c7f3;}.cls-4{fill:#009fe3;}.cls-5{fill:#1770b7;}.cls-6,.cls-7,.cls-8,.cls-9{fill:none;}.cls-6,.cls-7,.cls-8{stroke:#d0ebfc;stroke-linecap:round;stroke-linejoin:round;}.cls-6,.cls-7{stroke-width:8.5px;}.cls-6{stroke-dasharray:0.28 17.01;}.cls-7{stroke-dasharray:0.28 16.85;}.cls-8{stroke-width:11.34px;stroke-dasharray:0.28 25.18;}.cls-9{stroke:#1770b7;stroke-miterlimit:10;stroke-width:2.83px;}</style></defs><g id="Слой_3" data-name="Слой 3"><rect class="cls-1" x="-4.81" y="1.74" width="4381.94" height="1614.86"/></g><g id="Слой_5" data-name="Слой 5"><rect class="cls-2" x="1329.9" y="298.88" width="75.87" height="133.16"/><rect class="cls-2" x="1244.74" y="298.88" width="75.87" height="133.16"/><rect class="cls-2" x="1159.58" y="298.88" width="75.87" height="133.16"/><rect class="cls-2" x="1074.42" y="298.88" width="75.87" height="133.16"/><rect class="cls-2" x="989.26" y="298.88" width="75.87" height="133.16"/><rect class="cls-2" x="1329.9" y="441.33" width="75.87" height="133.16"/><rect class="cls-2" x="1244.74" y="441.33" width="75.87" height="133.16"/><rect class="cls-2" x="1159.58" y="441.33" width="75.87" height="133.16"/><rect class="cls-2" x="1074.42" y="441.33" width="75.87" height="133.16"/><rect class="cls-2" x="989.26" y="441.33" width="75.87" height="133.16"/><rect class="cls-2" x="1329.9" y="583.78" width="75.87" height="133.16"/><rect class="cls-2" x="1244.74" y="583.78" width="75.87" height="133.16"/><rect class="cls-2" x="1159.58" y="583.78" width="75.87" height="133.16"/><rect class="cls-2" x="1074.42" y="583.78" width="75.87" height="133.16"/><rect class="cls-2" x="989.26" y="583.78" width="75.87" height="133.16"/><rect class="cls-2" x="1329.9" y="726.23" width="75.87" height="133.16"/><rect class="cls-2" x="1244.74" y="726.23" width="75.87" height="133.16"/><rect class="cls-2" x="1159.58" y="726.23" width="75.87" height="133.16"/><rect class="cls-2" x="1074.42" y="726.23" width="75.87" height="133.16"/><rect class="cls-2" x="989.26" y="726.23" width="75.87" height="133.16"/><rect class="cls-2" x="1329.9" y="868.68" width="75.87" height="133.16"/><rect class="cls-2" x="1244.74" y="868.68" width="75.87" height="133.16"/><rect class="cls-2" x="1159.58" y="868.68" width="75.87" height="133.16"/><rect class="cls-2" x="1074.42" y="868.68" width="75.87" height="133.16"/><rect class="cls-2" x="989.26" y="868.68" width="75.87" height="133.16"/><rect class="cls-2" x="1329.9" y="1011.14" width="75.87" height="133.16"/><rect class="cls-2" x="1244.74" y="1011.14" width="75.87" height="133.16"/><rect class="cls-2" x="1159.58" y="1011.14" width="75.87" height="133.16"/><rect class="cls-2" x="1074.42" y="1011.14" width="75.87" height="133.16"/><rect class="cls-2" x="989.26" y="1011.14" width="75.87" height="133.16"/><rect class="cls-2" x="1957" y="298.88" width="75.87" height="133.16"/><rect class="cls-2" x="1871.84" y="298.88" width="75.87" height="133.16"/><rect class="cls-2" x="1786.68" y="298.88" width="75.87" height="133.16"/><rect class="cls-2" x="1701.52" y="298.88" width="75.87" height="133.16"/><rect class="cls-2" x="1616.35" y="298.88" width="75.87" height="133.16"/><rect class="cls-2" x="1957" y="441.33" width="75.87" height="133.16"/><rect class="cls-2" x="1871.84" y="441.33" width="75.87" height="133.16"/><rect class="cls-2" x="1786.68" y="441.33" width="75.87" height="133.16"/><rect class="cls-2" x="1701.52" y="441.33" width="75.87" height="133.16"/><rect class="cls-2" x="1616.35" y="441.33" width="75.87" height="133.16"/><rect class="cls-2" x="1957" y="583.78" width="75.87" height="133.16"/><rect class="cls-2" x="1871.84" y="583.78" width="75.87" height="133.16"/><rect class="cls-2" x="1786.68" y="583.78" width="75.87" height="133.16"/><rect class="cls-2" x="1701.52" y="583.78" width="75.87" height="133.16"/><rect class="cls-2" x="1616.35" y="583.78" width="75.87" height="133.16"/><rect class="cls-2" x="1957" y="726.23" width="75.87" height="133.16"/><rect class="cls-2" x="1871.84" y="726.23" width="75.87" height="133.16"/><rect class="cls-2" x="1786.68" y="726.23" width="75.87" height="133.16"/><rect class="cls-2" x="1701.52" y="726.23" width="75.87" height="133.16"/><rect class="cls-2" x="1616.35" y="726.23" width="75.87" height="133.16"/><rect class="cls-2" x="1957" y="868.68" width="75.87" height="133.16"/><rect class="cls-2" x="1871.84" y="868.68" width="75.87" height="133.16"/><rect class="cls-2" x="1786.68" y="868.68" width="75.87" height="133.16"/><rect class="cls-2" x="1701.52" y="868.68" width="75.87" height="133.16"/><rect class="cls-2" x="1616.35" y="868.68" width="75.87" height="133.16"/><rect class="cls-2" x="1957" y="1011.14" width="75.87" height="133.16"/><rect class="cls-2" x="1871.84" y="1011.14" width="75.87" height="133.16"/><rect class="cls-2" x="1786.68" y="1011.14" width="75.87" height="133.16"/><rect class="cls-2" x="1701.52" y="1011.14" width="75.87" height="133.16"/><rect class="cls-2" x="1616.35" y="1011.14" width="75.87" height="133.16"/><rect class="cls-2" x="2584.1" y="298.88" width="75.87" height="133.16"/><rect class="cls-2" x="2498.94" y="298.88" width="75.87" height="133.16"/><rect class="cls-2" x="2413.77" y="298.88" width="75.87" height="133.16"/><rect class="cls-2" x="2328.61" y="298.88" width="75.87" height="133.16"/><rect class="cls-2" x="2243.45" y="298.88" width="75.87" height="133.16"/><rect class="cls-2" x="2584.1" y="441.33" width="75.87" height="133.16"/><rect class="cls-2" x="2498.94" y="441.33" width="75.87" height="133.16"/><rect class="cls-2" x="2413.77" y="441.33" width="75.87" height="133.16"/><rect class="cls-2" x="2328.61" y="441.33" width="75.87" height="133.16"/><rect class="cls-2" x="2243.45" y="441.33" width="75.87" height="133.16"/><rect class="cls-2" x="2584.1" y="583.78" width="75.87" height="133.16"/><rect class="cls-2" x="2498.94" y="583.78" width="75.87" height="133.16"/><rect class="cls-2" x="2413.77" y="583.78" width="75.87" height="133.16"/><rect class="cls-2" x="2328.61" y="583.78" width="75.87" height="133.16"/><rect class="cls-2" x="2243.45" y="583.78" width="75.87" height="133.16"/><rect class="cls-2" x="2584.1" y="726.23" width="75.87" height="133.16"/><rect class="cls-2" x="2498.94" y="726.23" width="75.87" height="133.16"/><rect class="cls-2" x="2413.77" y="726.23" width="75.87" height="133.16"/><rect class="cls-2" x="2328.61" y="726.23" width="75.87" height="133.16"/><rect class="cls-2" x="2243.45" y="726.23" width="75.87" height="133.16"/><rect class="cls-2" x="2584.1" y="868.68" width="75.87" height="133.16"/><rect class="cls-2" x="2498.94" y="868.68" width="75.87" height="133.16"/><rect class="cls-2" x="2413.77" y="868.68" width="75.87" height="133.16"/><rect class="cls-2" x="2328.61" y="868.68" width="75.87" height="133.16"/><rect class="cls-2" x="2243.45" y="868.68" width="75.87" height="133.16"/><rect class="cls-2" x="2584.1" y="1011.14" width="75.87" height="133.16"/><rect class="cls-2" x="2498.94" y="1011.14" width="75.87" height="133.16"/><rect class="cls-2" x="2413.77" y="1011.14" width="75.87" height="133.16"/><rect class="cls-2" x="2328.61" y="1011.14" width="75.87" height="133.16"/><rect class="cls-2" x="2243.45" y="1011.14" width="75.87" height="133.16"/><rect class="cls-2" x="3211.19" y="298.88" width="75.87" height="133.16"/><rect class="cls-2" x="3126.03" y="298.88" width="75.87" height="133.16"/><rect class="cls-2" x="3040.87" y="298.88" width="75.87" height="133.16"/><rect class="cls-2" x="2955.71" y="298.88" width="75.87" height="133.16"/><rect class="cls-2" x="2870.55" y="298.88" width="75.87" height="133.16"/><rect class="cls-2" x="3211.19" y="441.33" width="75.87" height="133.16"/><rect class="cls-2" x="3126.03" y="441.33" width="75.87" height="133.16"/><rect class="cls-2" x="3040.87" y="441.33" width="75.87" height="133.16"/><rect class="cls-2" x="2955.71" y="441.33" width="75.87" height="133.16"/><rect class="cls-2" x="2870.55" y="441.33" width="75.87" height="133.16"/><rect class="cls-2" x="3211.19" y="583.78" width="75.87" height="133.16"/><rect class="cls-2" x="3126.03" y="583.78" width="75.87" height="133.16"/><rect class="cls-2" x="3040.87" y="583.78" width="75.87" height="133.16"/><rect class="cls-2" x="2955.71" y="583.78" width="75.87" height="133.16"/><rect class="cls-2" x="2870.55" y="583.78" width="75.87" height="133.16"/><rect class="cls-2" x="3211.19" y="726.23" width="75.87" height="133.16"/><rect class="cls-2" x="3126.03" y="726.23" width="75.87" height="133.16"/><rect class="cls-2" x="3040.87" y="726.23" width="75.87" height="133.16"/><rect class="cls-2" x="2955.71" y="726.23" width="75.87" height="133.16"/><rect class="cls-2" x="2870.55" y="726.23" width="75.87" height="133.16"/><rect class="cls-2" x="3211.19" y="868.68" width="75.87" height="133.16"/><rect class="cls-2" x="3126.03" y="868.68" width="75.87" height="133.16"/><rect class="cls-2" x="3040.87" y="868.68" width="75.87" height="133.16"/><rect class="cls-2" x="2955.71" y="868.68" width="75.87" height="133.16"/><rect class="cls-2" x="2870.55" y="868.68" width="75.87" height="133.16"/><rect class="cls-2" x="3211.19" y="1011.14" width="75.87" height="133.16"/><rect class="cls-2" x="3126.03" y="1011.14" width="75.87" height="133.16"/><rect class="cls-2" x="3040.87" y="1011.14" width="75.87" height="133.16"/><rect class="cls-2" x="2955.71" y="1011.14" width="75.87" height="133.16"/><rect class="cls-2" x="2870.55" y="1011.14" width="75.87" height="133.16"/><rect class="cls-2" x="3838.29" y="298.88" width="75.87" height="133.16"/><rect class="cls-2" x="3753.13" y="298.88" width="75.87" height="133.16"/><rect class="cls-2" x="3667.97" y="298.88" width="75.87" height="133.16"/><rect class="cls-2" x="3582.81" y="298.88" width="75.87" height="133.16"/><rect class="cls-2" x="3497.65" y="298.88" width="75.87" height="133.16"/><rect class="cls-2" x="3838.29" y="441.33" width="75.87" height="133.16"/><rect class="cls-2" x="3753.13" y="441.33" width="75.87" height="133.16"/><rect class="cls-2" x="3667.97" y="441.33" width="75.87" height="133.16"/><rect class="cls-2" x="3582.81" y="441.33" width="75.87" height="133.16"/><rect class="cls-2" x="3497.65" y="441.33" width="75.87" height="133.16"/><rect class="cls-2" x="3838.29" y="583.78" width="75.87" height="133.16"/><rect class="cls-2" x="3753.13" y="583.78" width="75.87" height="133.16"/><rect class="cls-2" x="3667.97" y="583.78" width="75.87" height="133.16"/><rect class="cls-2" x="3582.81" y="583.78" width="75.87" height="133.16"/><rect class="cls-2" x="3497.65" y="583.78" width="75.87" height="133.16"/><rect class="cls-2" x="3838.29" y="726.23" width="75.87" height="133.16"/><rect class="cls-2" x="3753.13" y="726.23" width="75.87" height="133.16"/><rect class="cls-2" x="3667.97" y="726.23" width="75.87" height="133.16"/><rect class="cls-2" x="3582.81" y="726.23" width="75.87" height="133.16"/><rect class="cls-2" x="3497.65" y="726.23" width="75.87" height="133.16"/><rect class="cls-2" x="3838.29" y="868.68" width="75.87" height="133.16"/><rect class="cls-2" x="3753.13" y="868.68" width="75.87" height="133.16"/><rect class="cls-2" x="3667.97" y="868.68" width="75.87" height="133.16"/><rect class="cls-2" x="3582.81" y="868.68" width="75.87" height="133.16"/><rect class="cls-2" x="3497.65" y="868.68" width="75.87" height="133.16"/><rect class="cls-2" x="3838.29" y="1011.14" width="75.87" height="133.16"/><rect class="cls-2" x="3753.13" y="1011.14" width="75.87" height="133.16"/><rect class="cls-2" x="3667.97" y="1011.14" width="75.87" height="133.16"/><rect class="cls-2" x="3582.81" y="1011.14" width="75.87" height="133.16"/><rect class="cls-2" x="3497.65" y="1011.14" width="75.87" height="133.16"/></g><g id="Слой_6" data-name="Слой 6"><rect class="cls-3" x="95.84" y="743.26" width="425.03" height="425.03"/><rect class="cls-3" x="174.81" y="650.36" width="158.81" height="158.81"/><rect class="cls-3" x="202.29" y="494.75" width="36.39" height="161.81"/><rect class="cls-3" x="174.81" y="494.75" width="91.35" height="15.48"/><rect class="cls-3" x="182.16" y="503.65" width="76.65" height="15.48"/><rect class="cls-3" x="191.84" y="544.3" width="57.29" height="26.71"/><rect class="cls-3" x="184.87" y="576.23" width="71.23" height="21.87"/><rect class="cls-3" x="174.81" y="513.33" width="91.35" height="15.48"/><rect class="cls-3" x="1105.39" y="1.74" width="17.42" height="139.59"/><rect class="cls-3" x="1352.16" width="17.42" height="139.59"/><rect class="cls-3" x="1074.42" y="119.26" width="336.39" height="53.42" rx="22.06"/><rect class="cls-2" x="1094.74" y="141.33" width="295.74" height="31.13"/><rect class="cls-3" x="1594.68" y="1.74" width="17.42" height="139.59"/><rect class="cls-3" x="1841.45" width="17.42" height="139.59"/><rect class="cls-3" x="1563.71" y="119.26" width="336.39" height="53.42" rx="22.06"/><rect class="cls-2" x="1584.03" y="141.33" width="295.74" height="31.13"/><rect class="cls-3" x="2083.97" y="1.74" width="17.42" height="139.59"/><rect class="cls-3" x="2330.74" width="17.42" height="139.59"/><rect class="cls-3" x="2053" y="119.26" width="336.39" height="53.42" rx="22.06"/><rect class="cls-2" x="2073.32" y="141.33" width="295.74" height="31.13"/><rect class="cls-3" x="2573.26" y="1.74" width="17.42" height="139.59"/><rect class="cls-3" x="2820.03" width="17.42" height="139.59"/><rect class="cls-3" x="2542.29" y="119.26" width="336.39" height="53.42" rx="22.06"/><rect class="cls-2" x="2562.61" y="141.33" width="295.74" height="31.13"/><rect class="cls-3" x="3062.55" y="1.74" width="17.42" height="139.59"/><rect class="cls-3" x="3309.32" width="17.42" height="139.59"/><rect class="cls-3" x="3031.58" y="119.26" width="336.39" height="53.42" rx="22.06"/><rect class="cls-2" x="3051.9" y="141.33" width="295.74" height="31.13"/><rect class="cls-3" x="3551.84" y="1.74" width="17.42" height="139.59"/><rect class="cls-3" x="3798.61" width="17.42" height="139.59"/><rect class="cls-3" x="3520.87" y="119.26" width="336.39" height="53.42" rx="22.06"/><rect class="cls-2" x="3541.19" y="141.33" width="295.74" height="31.13"/><rect class="cls-3" x="4114" y="56.55" width="160.26" height="89.42"/><rect class="cls-3" x="4069" y="6.62" width="87.1" height="55.74" rx="27.87"/><rect class="cls-3" x="4232.16" y="6.62" width="87.1" height="55.74" rx="27.87"/><rect class="cls-3" x="4142.74" y="127.39" width="16.26" height="69.68"/><rect class="cls-3" x="4229.26" y="127.39" width="16.26" height="69.68"/><rect class="cls-3" x="4150.87" y="172.68" width="86.52" height="13.94"/><rect class="cls-3" x="4182.52" y="172.68" width="23.23" height="70.84"/><rect class="cls-3" x="4112.55" y="230.75" width="161.71" height="22.06"/><rect class="cls-3" x="4183.11" y="316.66" width="185.62" height="14.33" transform="translate(4199.15 -3963.65) rotate(84.64)"/><path class="cls-3" d="M4282.53,403.22A34.79,34.79,0,0,0,4266.66,469V443.26a15.87,15.87,0,0,1,31.74,0V469a34.79,34.79,0,0,0-15.87-65.76Z"/><rect class="cls-3" x="4018.21" y="316.66" width="185.62" height="14.33" transform="translate(4817.22 -3739.02) rotate(95.36)"/><path class="cls-3" d="M4104.41,403.22A34.79,34.79,0,0,1,4120.28,469V443.26a15.87,15.87,0,1,0-31.74,0V469a34.79,34.79,0,0,1,15.87-65.76Z"/><path class="cls-3" d="M2606.2,629.48a34.79,34.79,0,0,1,15.87,65.76V669.53a15.87,15.87,0,0,0-31.74,0v25.71a34.79,34.79,0,0,1,15.87-65.76Z"/><rect class="cls-3" x="4192.1" y="634.88" width="109.16" height="118.45"/><rect class="cls-3" x="4227.95" y="753.33" width="109.16" height="118.45"/><rect class="cls-3" x="4118.79" y="753.33" width="109.16" height="118.45"/><rect class="cls-3" x="4227.95" y="871.78" width="109.16" height="118.45"/><rect class="cls-3" x="4118.79" y="871.78" width="109.16" height="118.45"/><rect class="cls-3" x="4009.63" y="871.78" width="109.16" height="118.45"/><rect class="cls-3" x="4227.95" y="990.23" width="109.16" height="118.45"/><rect class="cls-3" x="4118.79" y="990.23" width="109.16" height="118.45"/><rect class="cls-3" x="4009.63" y="990.23" width="109.16" height="118.45"/><rect class="cls-3" x="4227.95" y="1108.68" width="109.16" height="118.45"/><rect class="cls-3" x="4118.79" y="1108.68" width="109.16" height="118.45"/><rect class="cls-3" x="4009.63" y="1108.68" width="109.16" height="118.45"/><rect class="cls-3" x="4227.95" y="1227.14" width="109.16" height="118.45"/><rect class="cls-3" x="4118.79" y="1227.14" width="109.16" height="118.45"/><rect class="cls-3" x="4009.63" y="1227.14" width="109.16" height="118.45"/><rect class="cls-3" x="2109.9" y="868.68" width="341.81" height="112.26"/><rect class="cls-3" x="2147.45" y="839.26" width="264.77" height="35.1"/><rect class="cls-3" x="2213.52" y="831.01" width="171.87" height="38.71"/><polygon class="cls-3" points="2290.68 564.04 2281.39 564.04 2272.1 564.04 2260.1 795.91 2281.39 795.91 2302.68 795.91 2290.68 564.04"/><polygon class="cls-3" points="2109.9 917.07 2037.9 1416.43 2091.32 1416.43 2213.52 951.91 2109.9 917.07"/><polygon class="cls-3" points="2451.32 904.81 2523.32 1404.17 2469.91 1404.17 2347.71 939.65 2451.32 904.81"/><path class="cls-3" d="M2492.23,371.65a18.56,18.56,0,0,0-16.54,10.14c-5.44.75-10.51,3-15.42,5.6-7.13,3.83-14.17,7.68-21.55,11-14.82,6.71-30.21,12.07-45.44,17.77s-30.11,11.56-43.42,21.09-26.38,19.44-39.39,29.36c-13.33,10.16-26.06,21.05-34.95,35.45a6.21,6.21,0,0,0-.4.76,33.28,33.28,0,0,0-19.92,53.23c-3.7,10.45-8.89,20.44-14.17,30.15-9.42,17.35-18.78,34.68-26.47,52.89-14.55,34.48-22.89,71.91-16,109.23a124.84,124.84,0,0,0,7.48,25.2,33.29,33.29,0,1,0,21.38,62.68v20.6h136.26V790.75H2243.12a33.29,33.29,0,0,0-24.38-17.65c-11-23.77-13.07-51.62-8.89-77.21,6.21-38,24.24-71.76,42.3-105.22a237.7,237.7,0,0,0,12.55-26.35,33.29,33.29,0,1,0,24.44-61.17c9.53-13,22.73-22.84,35.6-32.45,15.86-11.83,31.4-25.55,49.38-34.05,17.72-8.37,36.72-14,54.89-21.3,8.95-3.59,17.83-7.41,26.42-11.8,6-3.05,12.05-7.48,18.66-9.3a18.58,18.58,0,1,0,18.14-22.6Z"/><rect class="cls-3" x="2452" y="399.39" width="63.66" height="34.86" rx="17.43" transform="translate(432.76 1878.41) rotate(-45)"/><rect class="cls-3" x="2568.66" y="569.18" width="63.66" height="34.86" rx="17.43" transform="translate(2015.78 -2014.31) rotate(64.62)"/><rect class="cls-3" x="2439.12" y="479.31" width="220.74" height="18.07" transform="translate(3290.59 2976.14) rotate(-117.43)"/><rect class="cls-3" x="2281.76" y="463.48" width="220.74" height="18.07" transform="translate(84.23 1259.37) rotate(-30)"/><rect class="cls-3" x="2600.5" y="607.52" width="11.41" height="30.45"/></g><g id="Слой_4" data-name="Слой 4"><path class="cls-4" d="M3390.81,1350.23v-34.06H3307a189.69,189.69,0,0,0-14.17-229.2v-75.83h23.61v57.29h91.78v92.8h23v-92.8h26.1V882.62h-26.1V720.43h354.55v440.8h23V720.43h44.9V671.65h-35.61V586.88H3760a37.16,37.16,0,0,0-22.29-70.71,77,77,0,0,1,3.71-7.09c3.58-6.19,7-12.32,9.24-19.15a71.42,71.42,0,0,0,3.48-21.6,93.91,93.91,0,0,0-3.19-22.85c-3.83-15.59-8.12-31.07-12.2-46.6q-6.2-23.58-12.4-47.17c-2.2-8.39-4.25-16.83-6.74-25.13a93.42,93.42,0,0,0-9.31-22A37.16,37.16,0,0,0,3663.49,248c-11.3-3.79-23.86-2.74-35.25.6a172.84,172.84,0,0,0-21.82,8.55c-7.14,3.2-14.28,6.4-21.5,9.43q-22,9.23-44.68,16.91t-45.46,13.71c-5.65,1.51-11.56,3.34-16,7.3a15.74,15.74,0,0,0-4.74,7.48c-.95,3.38-.69,6.91-1.08,10.36,0,.1,0,.21-.05.31l-2.89.94,1.4,4.32a2.38,2.38,0,0,0,.38,1.16l1.19,3.65-23.78,6.47a17.8,17.8,0,1,0-18.93,28.21v19H3409v10.26h-19l-35.8,35.81h27V535.78H3489.4V432.43h27l-35.8-35.81h-19V386.36h-21.28v-19a17.78,17.78,0,0,0,12.55-14.5l24.46-6.65,2.52,7.77,12.77-4.14-2.33-7.15L3650.88,299a37.37,37.37,0,0,0,18.19,15.35l-7.2,225h-15.58V575h-18.06v11.87h-91.88v84.77H3328.26V562.1h-108.2V671.65h-37.32V562.1H3074.55V671.65H3012V615.52H2903.84V724l-32.32,16.1V686.75h-108.2V794L2731,810.07V758H2622.81V864l-32.6,16.24c.17-2.05.27-4.11.27-6.19V829.2H2482.29V934L2450,950.06V900.43h-108.2V1004l-32.32,16.1v-48.4H2201.26v102.29l-20.71,10.32V992.55h-108.2v102.2h-37V992.55h-108.2v102.2h-37V992.55H1782v102.2h-83.22v140.51h-13.94V914.75h55.74V854.36h-55.74V809.17H1782V941h6.2v14.81a15.86,15.86,0,0,0,15.87,15.87h0A15.87,15.87,0,0,0,1820,955.78V941h6.19V809.17h26.13V941h6.19v14.81a15.87,15.87,0,0,0,15.87,15.87h0a15.87,15.87,0,0,0,15.88-15.87V941h6.19V809.17h92.71V764.58H1508.35v44.59h-66.19V1107l-111.87-165.1V704.71l-1.43-2.48-163.28-282.8v-2.88H626.94v305H613v51.09h18.58v246.58h22.07V805.44l32.76-32.76H851.5L872,809.17v28.55H806.55V802.1h-92.9v452.13h-17v96H526.29V1118H512.35V389.85L628.1,274.1h98.71v34.84l45.67,45.68h48.78v13.93h88.26V354.62h4.64l22.45-22.45V274.1H952.1V137.85H936.61V110H726.81v27.88H503.06v-11a20.32,20.32,0,0,0-20.32-20.32H456a20.32,20.32,0,0,0-20.32,20.32v11H379.19V772.68H347.84a22.07,22.07,0,0,0-21.65,17.81H227.45V1118H-4.81v566.71h4457V1350.23Zm44.49-985.48a14.47,14.47,0,1,1,14.47-14.47A14.46,14.46,0,0,1,3435.3,364.75Zm50.63-35.6-3.17-9.76-4.72,1.54c.05-.7.09-1.4.12-2.09.14-2.9.32-5.79,1.9-8.31,2.79-4.44,8.46-6.36,13.23-7.77,7.07-2.08,14.23-3.87,21.3-5.95q11.19-3.29,22.24-7,21.9-7.26,43.27-16,10.86-4.42,21.59-9.21c6.9-3.08,13.74-6.33,20.84-9,11.26-4.17,24.09-6.88,35.88-4.08a37.28,37.28,0,0,0-12.44,34Zm168.88-49.37a27.84,27.84,0,0,1,14-24.17,2.48,2.48,0,0,0,2.42-1.24,27.88,27.88,0,1,1-16.42,25.41Zm41.48,34.58a37.39,37.39,0,0,0,10.35-6.19c7.14,12.23,10.09,26.49,13.65,40.05q6.14,23.36,12.26,46.7,6.09,23.16,12.17,46.32c1.91,7.29,3.8,14.66,4.3,22.21a66.89,66.89,0,0,1-2,21.32,66.09,66.09,0,0,1-4,11.07c-1.61,3.44-3.57,6.71-5.48,10a64.69,64.69,0,0,0-5.91,12.37,37.3,37.3,0,0,0-20.07,21.19h-8.08Zm35.16,271.95c.45.2.91.39,1.37.57h-1.37ZM250.68,813.72h75.51a22.07,22.07,0,0,0,21.65,17.8h31.35V1118H250.68Zm2723.61,502.45v34.06H2592.07V933.77l428.29-213.34h61.19V913.59h-35.78V926h9v27.88h-27.75v112a189.7,189.7,0,0,0-35.59,250.35Zm-787.51-180.52L2569,945.24v405H2186.78V1135.65ZM3081.55,926v31.68c-.42-1.26-.82-2.52-1.18-3.8h-17V926Zm158,27.88a82.69,82.69,0,0,1-135,38.95V969.15A67,67,0,0,0,3227,931.39c0-1.82-.09-3.63-.24-5.42h29.85v27.88Zm168.69-71.23h-91.78V991h-23.61V953.85h-27.74V926h9V913.59h-49.57a67,67,0,0,0-120-20V720.43h303.68Zm-1244.52,260.9v206.71H2027.45v-98.9h65v-23h-41.8v-84.78Zm-721.58,7.5v199.21H1170.42V779.12l258.21,381.07ZM1317.9,708v215.6L1181.26,722v-.38h-15.68V444.2ZM1153.19,428.94V721.59H1026.48V633.33h-24.77v60.39H961.88l57.31-102.2h17.49V470.75H732.42V591.52h17.49l57.31,102.2H767.39V633.33H742.61v88.26H703.32V692.68h-64V428.94Zm-134.51,825.29V837.72H897.13V809.17l20.46-36.49h197.93l32.83,32.84v544.71h-80.12v-96Z"/><path class="cls-4" d="M1604.16,764.55h126.58A34.25,34.25,0,0,0,1765,730.3h0A34.26,34.26,0,0,0,1730.74,696H1604.16a34.26,34.26,0,0,0-34.26,34.26h0A34.25,34.25,0,0,0,1604.16,764.55Z"/><circle class="cls-4" cx="3682.68" cy="279.78" r="20.9"/><path class="cls-4" d="M3435.3,338.64a11.64,11.64,0,1,0,11.64,11.64A11.64,11.64,0,0,0,3435.3,338.64Z"/></g><g id="Слой_8" data-name="Слой 8"><circle class="cls-1" cx="1714.52" cy="1348.33" r="37.84"/></g><g id="Слой_11" data-name="Слой 11"><rect class="cls-1" x="4244.26" y="634.88" width="2.52" height="108.13"/><rect class="cls-1" x="4244.26" y="634.88" width="2.52" height="108.13" transform="translate(4934.46 -3556.57) rotate(90)"/><rect class="cls-1" x="4199.15" y="639.41" width="24.46" height="9.68"/><rect class="cls-1" x="4281.27" y="753.33" width="2.52" height="108.13"/><rect class="cls-1" x="4281.27" y="753.33" width="2.52" height="108.13" transform="translate(5089.93 -3475.14) rotate(90)"/><rect class="cls-1" x="4236.16" y="757.86" width="24.46" height="9.68"/><rect class="cls-1" x="4171.6" y="753.33" width="2.52" height="108.13"/><rect class="cls-1" x="4171.6" y="753.33" width="2.52" height="108.13" transform="translate(4980.25 -3365.46) rotate(90)"/><rect class="cls-1" x="4126.48" y="757.86" width="24.46" height="9.68"/><rect class="cls-1" x="4281.27" y="871.78" width="2.52" height="108.13"/><rect class="cls-1" x="4281.27" y="871.78" width="2.52" height="108.13" transform="translate(5208.38 -3356.69) rotate(90)"/><rect class="cls-1" x="4236.16" y="876.31" width="24.46" height="9.68"/><rect class="cls-1" x="4171.6" y="871.78" width="2.52" height="108.13"/><rect class="cls-1" x="4171.6" y="871.78" width="2.52" height="108.13" transform="translate(5098.7 -3247.01) rotate(90)"/><rect class="cls-1" x="4126.48" y="876.31" width="24.46" height="9.68"/><rect class="cls-1" x="4062.44" y="871.78" width="2.52" height="108.13"/><rect class="cls-1" x="4062.44" y="871.78" width="2.52" height="108.13" transform="translate(4989.54 -3137.85) rotate(90)"/><rect class="cls-1" x="4017.32" y="876.31" width="24.46" height="9.68"/><rect class="cls-1" x="4281.27" y="987.17" width="2.52" height="108.13"/><rect class="cls-1" x="4281.27" y="987.17" width="2.52" height="108.13" transform="translate(5323.76 -3241.3) rotate(90)"/><rect class="cls-1" x="4236.16" y="991.7" width="24.46" height="9.68"/><rect class="cls-1" x="4171.6" y="987.17" width="2.52" height="108.13"/><rect class="cls-1" x="4171.6" y="987.17" width="2.52" height="108.13" transform="translate(5214.09 -3131.62) rotate(90)"/><rect class="cls-1" x="4126.48" y="991.7" width="24.46" height="9.68"/><rect class="cls-1" x="4062.44" y="987.17" width="2.52" height="108.13"/><rect class="cls-1" x="4062.44" y="987.17" width="2.52" height="108.13" transform="translate(5104.93 -3022.46) rotate(90)"/><rect class="cls-1" x="4017.32" y="991.7" width="24.46" height="9.68"/><rect class="cls-1" x="4281.27" y="1102.55" width="2.52" height="108.13"/><rect class="cls-1" x="4281.27" y="1102.55" width="2.52" height="108.13" transform="translate(5439.15 -3125.91) rotate(90)"/><rect class="cls-1" x="4236.16" y="1107.09" width="24.46" height="9.68"/><rect class="cls-1" x="4171.6" y="1102.55" width="2.52" height="108.13"/><rect class="cls-1" x="4171.6" y="1102.55" width="2.52" height="108.13" transform="translate(5329.47 -3016.24) rotate(90)"/><rect class="cls-1" x="4126.48" y="1107.09" width="24.46" height="9.68"/><rect class="cls-1" x="4062.44" y="1102.55" width="2.52" height="108.13"/><rect class="cls-1" x="4062.44" y="1102.55" width="2.52" height="108.13" transform="translate(5220.31 -2907.07) rotate(90)"/><rect class="cls-1" x="4017.32" y="1107.09" width="24.46" height="9.68"/><rect class="cls-1" x="4281.27" y="1217.94" width="2.52" height="108.13"/><rect class="cls-1" x="4281.27" y="1217.94" width="2.52" height="108.13" transform="translate(5554.54 -3010.53) rotate(90)"/><rect class="cls-1" x="4236.16" y="1222.47" width="24.46" height="9.68"/><rect class="cls-1" x="4171.6" y="1217.94" width="2.52" height="108.13"/><rect class="cls-1" x="4171.6" y="1217.94" width="2.52" height="108.13" transform="translate(5444.86 -2900.85) rotate(90)"/><rect class="cls-1" x="4126.48" y="1222.47" width="24.46" height="9.68"/><rect class="cls-1" x="4062.44" y="1217.94" width="2.52" height="108.13"/><rect class="cls-1" x="4062.44" y="1217.94" width="2.52" height="108.13" transform="translate(5335.7 -2791.69) rotate(90)"/><rect class="cls-1" x="4017.32" y="1222.47" width="24.46" height="9.68"/></g><g id="Слой_9" data-name="Слой 9"><rect class="cls-2" x="3997" y="847.78" width="349.16" height="6.97"/><rect class="cls-2" x="3741.9" y="1102.88" width="517.16" height="6.97" transform="translate(5106.85 -2894.12) rotate(90)"/><rect class="cls-2" x="3810.11" y="1102.88" width="517.16" height="6.97" transform="translate(5175.05 -2962.33) rotate(90)"/><rect class="cls-2" x="3878.32" y="1102.88" width="517.16" height="6.97" transform="translate(5243.26 -3030.54) rotate(90)"/><rect class="cls-2" x="3946.52" y="1102.88" width="517.16" height="6.97" transform="translate(5311.46 -3098.74) rotate(90)"/><rect class="cls-2" x="4014.73" y="1102.88" width="517.16" height="6.97" transform="translate(5379.67 -3166.95) rotate(90)"/><rect class="cls-2" x="4084.1" y="1102.88" width="517.16" height="6.97" transform="translate(5449.04 -3236.32) rotate(90)"/><rect class="cls-2" x="3997" y="920.67" width="349.16" height="6.97"/><rect class="cls-2" x="3997" y="993.55" width="349.16" height="6.97"/><rect class="cls-2" x="3997" y="1066.44" width="349.16" height="6.97"/><rect class="cls-2" x="3997" y="1139.32" width="349.16" height="6.97"/><rect class="cls-2" x="3997" y="1212.2" width="349.16" height="6.97"/><rect class="cls-2" x="3997" y="1285.09" width="349.16" height="6.97"/><rect class="cls-2" x="3997" y="1357.97" width="349.16" height="6.97"/><circle class="cls-2" cx="4205.06" cy="1377.91" r="16.45"/><circle class="cls-2" cx="4309.58" cy="1377.91" r="16.45"/></g><g id="Слой_2" data-name="Слой 2"><path class="cls-5" d="M4189.77,1515.14V1215.36H3951.71v299.78h-75.48V965.52H3604.48v119.94H3353.65v429.68H3057.13v-33.29h-21.68v9.29h-11.61V1271.85h0a30.18,30.18,0,0,0-30.15-28.84H2767.32v-53.29a13.93,13.93,0,0,0-12.9-13.89v0H2735.8a24.52,24.52,0,0,0-47,0h-18.62v.27a13.93,13.93,0,0,0-11.22,13.67V1243h-90.33a30.19,30.19,0,0,0-30.16,28.84h0v29.74A6.45,6.45,0,0,1,2532,1308h-16.78V1216.3H2502V1190H2269v26.33h-14.71v34.64h-20.52v13.42a28.59,28.59,0,0,0,20.52,27.42v1.16h6.19V1320h-8.64v14.32h8.64v5h-35.61V1368h8.9v14.32h8.29V1387h-8.29v14.32h8.29V1406h-8.29v14.33h8.29v4.64h-8.29v14.32h8.29v4.65h-8.29v14.32h8.29v4.65h-8.29v14.32h8.29v4.65h-8.29v14.32h8.29v4.64h-8.29v14.33H1789.39v-11.62h63.87v-76.64h-24.39v-8.13a25.55,25.55,0,0,0-25.55-25.55h-5.8a25.55,25.55,0,0,0-25.55,25.55v8.13H1722v-37.8a41,41,0,1,0-47.25-47.25H1633.4v13.58h12.73v13.4h-94.81V1170.23h18.58v-51.09H1413.13v-30.2h-82.45v30.2h-53.42v51.09h19.61v187H1163.45v125.42h-16.26v-39.48h-25.54v39.48h-20.13v-39.48H1076v39.48h-20.13v-39.48h-25.55v39.48h-20.13v-39.48H984.61v39.48H964.48v-39.48H938.94v39.48H918.81v-39.48H893.26v39.48H873.13v-39.48H847.58v39.48H827.45v-39.48H801.9v39.48H781.77v-39.48H756.23v39.48H736.1v-39.48H710.55v39.48H690.42v-39.48H664.87v39.48H644.74v-39.48H619.19v39.48H599.06v-39.48H573.52v39.48H553.39v-39.48H527.84v39.48H507.71v-39.48H482.16v39.48H462v-39.48H436.48v39.48H422.55v-56.9H705.9v-39.49H666.42V1072.68H705.9v-108H97.39v108h24.38v200.91H41.65v241.55H-4.81v108H41.65v3.48H410.94v18.58H1457.65v32.52H4377.13V1515.14ZM1680.61,1341.83a35.26,35.26,0,1,1-.66,6.79A35.3,35.3,0,0,1,1680.61,1341.83Zm-20.9,13.58h15.07a41,41,0,0,0,33.67,33.67v37.8h-48.74v-71.47Zm-13.58,37.79v33.68h-94.81V1393.2Zm-94.81,110.32H1722v11.62H1551.32Zm1142.52-327.74a19.47,19.47,0,1,1-1.29,7A19.72,19.72,0,0,1,2693.84,1175.78Zm-21,17.13a4,4,0,0,1,3.92-3.19h12a24.53,24.53,0,0,0,47,0h13.59a4,4,0,0,1,4,4V1243h-80.52Zm-133.42,145.32v0a30.19,30.19,0,0,0,29.16-30.17v-28.39a6.45,6.45,0,0,1,6.45-6.45h412.13a6.46,6.46,0,0,1,6.46,6.45v211.49h-70.07v-9.29H2901.9v9.29h-26.71V1470h22a30.25,30.25,0,0,0,30.26-30.25v-60.84a30.26,30.26,0,0,0-30.26-30.26h-57.8V1327.2h-150v21.42H2627.9a30.25,30.25,0,0,0-30.25,30.26v60.84A30.25,30.25,0,0,0,2627.9,1470h23.16v21.17h-72.38v24h-63.49V1338.23Z"/><path class="cls-5" d="M1708.45,1376.83a29,29,0,1,0-21.42-21.42A29.21,29.21,0,0,0,1708.45,1376.83Z"/></g><g id="Слой_7" data-name="Слой 7"><rect class="cls-1" x="122.94" y="1011.14" width="559.74" height="9.87"/><rect class="cls-1" x="354.03" y="1104.04" width="125.42" height="110.32" rx="13.23"/><rect class="cls-1" x="532.87" y="1111.01" width="108" height="175.35" rx="8.65"/><rect class="cls-1" x="382.29" y="1237.97" width="25.16" height="25.16"/><rect class="cls-1" x="416.74" y="1237.97" width="25.16" height="25.16"/><rect class="cls-1" x="451.19" y="1237.97" width="25.16" height="25.16"/><rect class="cls-1" x="485.65" y="1237.97" width="25.16" height="25.16"/><rect class="cls-1" x="169.39" y="1237.97" width="154.84" height="41.81"/><rect class="cls-1" x="209.65" y="1247.26" width="114.58" height="133.94"/><rect class="cls-1" x="75.71" y="1317.72" width="106.84" height="9.29"/><rect class="cls-1" x="75.71" y="1333.97" width="106.84" height="9.29"/><rect class="cls-1" x="75.71" y="1350.23" width="106.84" height="9.29"/><rect class="cls-1" x="75.71" y="1366.49" width="106.84" height="9.29"/><rect class="cls-1" x="75.71" y="1382.75" width="106.84" height="9.29"/><rect class="cls-1" x="75.71" y="1399.01" width="106.84" height="9.29"/><rect class="cls-1" x="75.71" y="1415.26" width="106.84" height="9.29"/><rect class="cls-1" x="439.58" y="1446.75" width="18.84" height="18.84"/><rect class="cls-1" x="485.3" y="1446.75" width="18.84" height="18.84"/><rect class="cls-1" x="531.02" y="1446.75" width="18.84" height="18.84"/><rect class="cls-1" x="576.74" y="1446.75" width="18.84" height="18.84"/><rect class="cls-1" x="622.45" y="1446.75" width="18.84" height="18.84"/><rect class="cls-1" x="668.17" y="1446.75" width="18.84" height="18.84"/><rect class="cls-1" x="713.89" y="1446.75" width="18.84" height="18.84"/><rect class="cls-1" x="759.61" y="1446.75" width="18.84" height="18.84"/><rect class="cls-1" x="805.33" y="1446.75" width="18.84" height="18.84"/><rect class="cls-1" x="851.05" y="1446.75" width="18.84" height="18.84"/><rect class="cls-1" x="896.76" y="1446.75" width="18.84" height="18.84"/><rect class="cls-1" x="942.48" y="1446.75" width="18.84" height="18.84"/><rect class="cls-1" x="988.2" y="1446.75" width="18.84" height="18.84"/><rect class="cls-1" x="1033.92" y="1446.75" width="18.84" height="18.84"/><rect class="cls-1" x="1079.64" y="1446.75" width="18.84" height="18.84"/><rect class="cls-1" x="1125.35" y="1446.75" width="18.84" height="18.84"/><rect class="cls-1" x="1334.55" y="1193.07" width="180.39" height="133.16" rx="15.1"/><rect class="cls-1" x="1334.55" y="1370.36" width="184.26" height="24.77" rx="7.35"/><rect class="cls-1" x="1416.23" y="1427.26" width="23.23" height="23.23"/><rect class="cls-1" x="1461.9" y="1418.75" width="13.16" height="17.81"/><rect class="cls-1" x="1479.71" y="1418.75" width="13.16" height="17.81"/><rect class="cls-1" x="1497.52" y="1418.75" width="13.16" height="17.81"/><circle class="cls-1" cx="1490.26" cy="1472.26" r="21.77"/><path class="cls-1" d="M1620.74,1135.52a36.39,36.39,0,1,0,36.39,36.39A36.39,36.39,0,0,0,1620.74,1135.52Zm0,65.55a29.16,29.16,0,1,1,29.16-29.16A29.17,29.17,0,0,1,1620.74,1201.07Z"/><circle class="cls-1" cx="1620.74" cy="1171.91" r="6.06"/><rect class="cls-1" x="1587.45" y="1170.36" width="66.58" height="3.1" transform="translate(803.09 -653.36) rotate(30)"/><rect class="cls-1" x="1587.45" y="1170.36" width="66.58" height="3.1" transform="translate(-204.53 1989.56) rotate(-60)"/><rect class="cls-1" x="1851.19" y="1148.94" width="102.71" height="52.13"/><rect class="cls-1" x="1480.1" y="906.36" width="124.39" height="171.35"/><rect class="cls-1" x="1538.42" y="821.72" width="111.48" height="62.45"/><rect class="cls-1" x="640.87" y="700.43" width="54.19" height="45.94"/><rect class="cls-1" x="726.03" y="838.75" width="67.1" height="114.58"/><rect class="cls-1" x="743.58" y="979.14" width="13.94" height="19.61"/><rect class="cls-1" x="765.23" y="979.14" width="13.94" height="19.61"/><rect class="cls-1" x="743.58" y="1001.33" width="13.94" height="19.61"/><rect class="cls-1" x="765.23" y="1001.33" width="13.94" height="19.61"/><rect class="cls-1" x="743.58" y="1023.52" width="13.94" height="19.61"/><rect class="cls-1" x="765.23" y="1023.52" width="13.94" height="19.61"/><rect class="cls-1" x="743.58" y="1045.72" width="13.94" height="19.61"/><rect class="cls-1" x="765.23" y="1045.72" width="13.94" height="19.61"/><rect class="cls-1" x="828.74" y="882.62" width="152.26" height="178.58" rx="26.06"/><polygon class="cls-1" points="2277.52 1300.68 2291.07 1300.68 2323.58 1320.43 2323.58 1342.88 2277.52 1342.88 2277.52 1334.17 2285.64 1334.17 2285.64 1320.04 2277.52 1320.04 2277.52 1300.68"/><circle class="cls-1" cx="2302.68" cy="1275.52" r="16.65"/><rect class="cls-1" x="2331.19" y="1261.46" width="170.58" height="170.58"/><rect class="cls-1" x="2331.19" y="1455.52" width="170.58" height="84.13"/><rect class="cls-1" x="2650.16" y="1369.33" width="228.65" height="5.68"/><rect class="cls-1" x="2650.16" y="1377.59" width="228.65" height="5.68"/><rect class="cls-1" x="2650.16" y="1385.85" width="228.65" height="5.68"/><rect class="cls-1" x="2650.16" y="1394.1" width="228.65" height="5.68"/><rect class="cls-1" x="2650.16" y="1402.36" width="228.65" height="5.68"/><rect class="cls-1" x="2650.16" y="1410.62" width="228.65" height="5.68"/><rect class="cls-1" x="2650.16" y="1418.88" width="228.65" height="5.68"/><rect class="cls-1" x="2650.16" y="1427.14" width="228.65" height="5.68"/><rect class="cls-1" x="2650.16" y="1435.39" width="228.65" height="5.68"/><rect class="cls-1" x="2650.16" y="1443.65" width="228.65" height="5.68"/><rect class="cls-1" x="3379.97" y="1261.2" width="140.13" height="104.52"/><rect class="cls-1" x="3444.23" y="1134.23" width="120.77" height="82.84" rx="14.71"/><rect class="cls-1" x="3573.52" y="1247.26" width="19.74" height="19.74"/><rect class="cls-1" x="3573.52" y="1274.36" width="19.74" height="19.74"/><rect class="cls-1" x="3376.87" y="1418.88" width="196.65" height="16.52"/><rect class="cls-1" x="3556.48" y="1365.72" width="54.19" height="17.55"/><rect class="cls-1" x="3650.94" y="1028.17" width="181.94" height="140.9"/><rect class="cls-1" x="3694.29" y="1243.39" width="134.71" height="125.94" rx="20.9"/><rect class="cls-1" x="3717.9" y="1402.1" width="14.32" height="17.03"/><rect class="cls-1" x="3740.74" y="1402.1" width="14.32" height="17.03"/><rect class="cls-1" x="3763.58" y="1402.1" width="14.32" height="17.03"/><rect class="cls-1" x="3786.42" y="1402.1" width="14.32" height="17.03"/><rect class="cls-1" x="3809.26" y="1402.1" width="14.32" height="17.03"/><rect class="cls-1" x="3717.9" y="1426.88" width="14.32" height="17.03"/><rect class="cls-1" x="3740.74" y="1426.88" width="14.32" height="17.03"/><rect class="cls-1" x="3763.58" y="1426.88" width="14.32" height="17.03"/><rect class="cls-1" x="3786.42" y="1426.88" width="14.32" height="17.03"/><rect class="cls-1" x="3809.26" y="1426.88" width="14.32" height="17.03"/><rect class="cls-1" x="3717.9" y="1451.65" width="14.32" height="17.03"/><rect class="cls-1" x="3740.74" y="1451.65" width="14.32" height="17.03"/><rect class="cls-1" x="3763.58" y="1451.65" width="14.32" height="17.03"/><rect class="cls-1" x="3786.42" y="1451.65" width="14.32" height="17.03"/><rect class="cls-1" x="3809.26" y="1451.65" width="14.32" height="17.03"/><rect class="cls-1" x="3717.9" y="1476.43" width="14.32" height="17.03"/><rect class="cls-1" x="3740.74" y="1476.43" width="14.32" height="17.03"/><rect class="cls-1" x="3763.58" y="1476.43" width="14.32" height="17.03"/><rect class="cls-1" x="3786.42" y="1476.43" width="14.32" height="17.03"/><rect class="cls-1" x="3809.26" y="1476.43" width="14.32" height="17.03"/><rect class="cls-1" x="3992.35" y="1243.39" width="149.42" height="229.16"/><rect class="cls-1" x="1834.5" y="992.67" width="2.52" height="108.13"/><rect class="cls-1" x="1834.5" y="992.67" width="2.52" height="108.13" transform="translate(2882.49 -789.03) rotate(90)"/><rect class="cls-1" x="1789.39" y="997.2" width="24.46" height="9.68"/><rect class="cls-1" x="1980.32" y="992.67" width="2.52" height="108.13"/><rect class="cls-1" x="1980.32" y="992.67" width="2.52" height="108.13" transform="translate(3028.31 -934.85) rotate(90)"/><rect class="cls-1" x="1935.21" y="997.2" width="24.46" height="9.68"/><rect class="cls-1" x="2125.13" y="992.67" width="2.52" height="108.13"/><rect class="cls-1" x="2125.13" y="992.67" width="2.52" height="108.13" transform="translate(3173.12 -1079.65) rotate(90)"/><rect class="cls-1" x="2080.02" y="997.2" width="24.46" height="9.68"/><rect class="cls-1" x="2253.94" y="971.57" width="2.52" height="108.13"/><rect class="cls-1" x="2253.94" y="971.57" width="2.52" height="108.13" transform="translate(3280.83 -1229.56) rotate(90)"/><rect class="cls-1" x="2208.82" y="976.1" width="24.46" height="9.68"/><rect class="cls-1" x="2394.61" y="900.73" width="2.52" height="108.13"/><rect class="cls-1" x="2394.61" y="900.73" width="2.52" height="108.13" transform="translate(3350.67 -1441.07) rotate(90)"/><rect class="cls-1" x="2349.5" y="905.26" width="24.46" height="9.68"/><rect class="cls-1" x="2535.61" y="828.85" width="2.52" height="108.13"/><rect class="cls-1" x="2535.61" y="828.85" width="2.52" height="108.13" transform="translate(3419.78 -1653.96) rotate(90)"/><rect class="cls-1" x="2490.5" y="833.38" width="24.46" height="9.68"/><rect class="cls-1" x="2674.84" y="758.01" width="2.52" height="108.13"/><rect class="cls-1" x="2674.84" y="758.01" width="2.52" height="108.13" transform="translate(3488.17 -1864.03) rotate(90)"/><rect class="cls-1" x="2629.73" y="762.54" width="24.46" height="9.68"/><rect class="cls-1" x="2815.23" y="687.78" width="2.52" height="108.13"/><rect class="cls-1" x="2815.23" y="687.78" width="2.52" height="108.13" transform="translate(3558.33 -2074.64) rotate(90)"/><rect class="cls-1" x="2770.11" y="692.31" width="24.46" height="9.68"/><rect class="cls-1" x="2957.55" y="615.49" width="2.52" height="108.13"/><rect class="cls-1" x="2957.55" y="615.49" width="2.52" height="108.13" transform="translate(3628.36 -2289.25) rotate(90)"/><rect class="cls-1" x="2912.44" y="620.02" width="24.46" height="9.68"/><rect class="cls-1" x="3127.1" y="562.68" width="2.52" height="108.13"/><rect class="cls-1" x="3127.1" y="562.68" width="2.52" height="108.13" transform="translate(3745.1 -2511.61) rotate(90)"/><rect class="cls-1" x="3081.98" y="567.22" width="24.46" height="9.68"/><rect class="cls-1" x="3272.65" y="561.43" width="2.52" height="108.13"/><rect class="cls-1" x="3272.65" y="561.43" width="2.52" height="108.13" transform="translate(3889.39 -2658.41) rotate(90)"/><rect class="cls-1" x="3227.53" y="565.96" width="24.46" height="9.68"/><rect class="cls-1" x="3434.05" y="428.26" width="2.52" height="108.13"/><rect class="cls-1" x="3434.05" y="428.26" width="2.52" height="108.13" transform="translate(3917.63 -2952.98) rotate(90)"/><rect class="cls-1" x="3388.93" y="432.8" width="24.46" height="9.68"/><circle class="cls-1" cx="2282.16" cy="819.14" r="12.9"/><circle class="cls-1" cx="2281.39" cy="535.39" r="20.13"/><circle class="cls-6" cx="2213.52" cy="806.23" r="21.96"/><circle class="cls-7" cx="3746.55" cy="552.27" r="27.27" transform="translate(2601.27 4161.98) rotate(-80.78)"/><circle class="cls-8" cx="3159.6" cy="931.17" r="56.74"/><circle class="cls-1" cx="2492.35" cy="390.36" r="13.94"/><circle class="cls-1" cx="2473.25" cy="427.39" r="13.94"/><circle class="cls-1" cx="2606.2" cy="598.63" r="13.94"/><circle class="cls-1" cx="3680.23" cy="562.23" r="12.26"/><circle class="cls-1" cx="3147.07" cy="1215.66" r="68.27"/><circle class="cls-3" cx="2282.16" cy="819.14" r="9.71"/><circle class="cls-3" cx="2281.39" cy="535.39" r="15.29"/><circle class="cls-3" cx="2473.25" cy="427.39" r="9.85"/><circle class="cls-3" cx="2492.35" cy="390.36" r="10.58"/><circle class="cls-3" cx="2606.2" cy="598.63" r="10.03"/><circle class="cls-4" cx="3680.23" cy="562.23" r="9.68"/></g><g id="Слой_10" data-name="Слой 10"><rect class="cls-5" x="551.45" y="1132.3" width="17.42" height="8.9"/><rect class="cls-5" x="574.29" y="1132.3" width="4.52" height="8.9"/><rect class="cls-5" x="596.23" y="1132.3" width="4.52" height="8.9"/><rect class="cls-5" x="582.81" y="1132.3" width="8.9" height="8.9"/><rect class="cls-5" x="551.45" y="1145.59" width="17.42" height="8.9"/><rect class="cls-5" x="574.29" y="1145.59" width="4.52" height="8.9"/><rect class="cls-5" x="596.23" y="1145.59" width="4.52" height="8.9"/><rect class="cls-5" x="582.81" y="1145.59" width="8.9" height="8.9"/><rect class="cls-5" x="551.45" y="1158.88" width="17.42" height="8.9"/><rect class="cls-5" x="574.29" y="1158.88" width="4.52" height="8.9"/><rect class="cls-5" x="596.23" y="1158.88" width="4.52" height="8.9"/><rect class="cls-5" x="582.81" y="1158.88" width="8.9" height="8.9"/><rect class="cls-5" x="551.45" y="1172.17" width="17.42" height="8.9"/><rect class="cls-5" x="574.29" y="1172.17" width="4.52" height="8.9"/><rect class="cls-5" x="596.23" y="1172.17" width="4.52" height="8.9"/><rect class="cls-5" x="582.81" y="1172.17" width="8.9" height="8.9"/><rect class="cls-5" x="551.45" y="1203.91" width="13.16" height="17.61"/><rect class="cls-5" x="551.45" y="1226.55" width="13.16" height="17.61"/><rect class="cls-5" x="596.23" y="1203.91" width="31.29" height="17.61"/><rect class="cls-5" x="578.81" y="1235.36" width="12.9" height="12.9"/><rect class="cls-5" x="596.23" y="1235.36" width="12.9" height="12.9"/><rect class="cls-5" x="613.65" y="1235.36" width="12.9" height="12.9"/><circle class="cls-5" cx="616.58" cy="1264.01" r="10.94"/><rect class="cls-4" x="739.97" y="862.49" width="40.26" height="22.45"/><rect class="cls-4" x="739.97" y="893.85" width="18" height="18"/><rect class="cls-4" x="762.23" y="893.85" width="18" height="18"/><rect class="cls-5" x="2363.71" y="1275.91" width="79.48" height="48.52"/><rect class="cls-5" x="2408.35" y="1338.1" width="9.16" height="9.16"/><rect class="cls-5" x="2426.42" y="1338.1" width="9.16" height="9.16"/><rect class="cls-5" x="2444.48" y="1338.1" width="9.16" height="9.16"/><rect class="cls-5" x="2462.55" y="1338.1" width="9.16" height="9.16"/><rect class="cls-5" x="2408.35" y="1356.55" width="9.16" height="9.16"/><rect class="cls-5" x="2426.42" y="1356.55" width="9.16" height="9.16"/><rect class="cls-5" x="2444.48" y="1356.55" width="9.16" height="9.16"/><rect class="cls-5" x="2462.55" y="1356.55" width="9.16" height="9.16"/><rect class="cls-5" x="2408.35" y="1375.01" width="9.16" height="9.16"/><rect class="cls-5" x="2426.42" y="1375.01" width="9.16" height="9.16"/><rect class="cls-5" x="2444.48" y="1375.01" width="9.16" height="9.16"/><rect class="cls-5" x="2462.55" y="1375.01" width="9.16" height="9.16"/><rect class="cls-4" x="3113.13" y="1163.39" width="22.19" height="102.71"/><rect class="cls-4" x="3161.65" y="1163.39" width="22.19" height="102.71"/><rect class="cls-5" x="3448.61" y="1275.39" width="40.77" height="4.65"/><rect class="cls-5" x="3413.39" y="1293.39" width="40.77" height="4.65"/><rect class="cls-5" x="3426.74" y="1302.3" width="40.77" height="4.65"/><rect class="cls-5" x="3673.39" y="1042.36" width="40.26" height="4.13"/><rect class="cls-5" x="3673.39" y="1049.59" width="40.26" height="4.13"/><rect class="cls-5" x="3673.39" y="1056.81" width="40.26" height="4.13"/><rect class="cls-5" x="3673.39" y="1064.04" width="40.26" height="4.13"/><rect class="cls-5" x="3673.39" y="1071.26" width="40.26" height="4.13"/><rect class="cls-5" x="3673.39" y="1078.49" width="40.26" height="4.13"/><rect class="cls-5" x="3673.39" y="1085.72" width="40.26" height="4.13"/><rect class="cls-5" x="3673.39" y="1092.94" width="40.26" height="4.13"/><rect class="cls-5" x="3673.39" y="1100.17" width="40.26" height="4.13"/><rect class="cls-5" x="3673.39" y="1107.39" width="40.26" height="4.13"/><rect class="cls-5" x="3673.39" y="1114.62" width="40.26" height="4.13"/><rect class="cls-5" x="3673.39" y="1121.85" width="40.26" height="4.13"/><polyline class="cls-9" points="3708.74 1312.56 3719.84 1289.33 3734.55 1312.56 3738.94 1285.72 3742.29 1291.65 3746.68 1261.97 3757.77 1296.04 3759.58 1290.36 3765.52 1312.56 3775.84 1285.46 3784.87 1301.72 3786.68 1296.56 3793.64 1311.27 3802.16 1275.91 3815.84 1309.46"/><circle class="cls-5" cx="4028.03" cy="1268.23" r="13.74"/><rect class="cls-5" x="4014.29" y="1293.46" width="13.74" height="13.74"/><rect class="cls-5" x="4038.97" y="1293.46" width="13.74" height="13.74"/><rect class="cls-5" x="4063.65" y="1293.46" width="13.74" height="13.74"/><rect class="cls-5" x="4014.29" y="1325.07" width="49.35" height="49.35"/><rect class="cls-5" x="4099.19" y="1261.97" width="22.84" height="22.84"/><rect class="cls-5" x="4099.19" y="1295.78" width="22.84" height="22.84"/><rect class="cls-5" x="4099.19" y="1329.59" width="22.84" height="22.84"/><rect class="cls-5" x="4036.68" y="1396.68" width="9.16" height="9.16"/><rect class="cls-5" x="4054.48" y="1396.68" width="9.16" height="9.16"/><rect class="cls-5" x="4072.29" y="1396.68" width="9.16" height="9.16"/><rect class="cls-5" x="4090.1" y="1396.68" width="9.16" height="9.16"/><rect class="cls-5" x="4107.9" y="1396.68" width="9.16" height="9.16"/><rect class="cls-5" x="4036.68" y="1412.17" width="9.16" height="9.16"/><rect class="cls-5" x="4054.48" y="1412.17" width="9.16" height="9.16"/><rect class="cls-5" x="4072.29" y="1412.17" width="9.16" height="9.16"/><rect class="cls-5" x="4090.1" y="1412.17" width="9.16" height="9.16"/><rect class="cls-5" x="4107.9" y="1412.17" width="9.16" height="9.16"/><rect class="cls-5" x="4036.68" y="1427.65" width="9.16" height="9.16"/><rect class="cls-5" x="4054.48" y="1427.65" width="9.16" height="9.16"/><rect class="cls-5" x="4072.29" y="1427.65" width="9.16" height="9.16"/><rect class="cls-5" x="4090.1" y="1427.65" width="9.16" height="9.16"/><rect class="cls-5" x="4107.9" y="1427.65" width="9.16" height="9.16"/><rect class="cls-5" x="4036.68" y="1443.14" width="9.16" height="9.16"/><rect class="cls-5" x="4054.48" y="1443.14" width="9.16" height="9.16"/><rect class="cls-5" x="4072.29" y="1443.14" width="9.16" height="9.16"/><rect class="cls-5" x="4090.1" y="1443.14" width="9.16" height="9.16"/><rect class="cls-5" x="4107.9" y="1443.14" width="9.16" height="9.16"/></g></svg>